<svg width="28" height="27" viewBox="0 0 28 27" fill="none" xmlns="http://www.w3.org/2000/svg">
<circle cx="13.9304" cy="13.5" r="13.5" fill="#39A7D2"/>
<path fill-rule="evenodd" clip-rule="evenodd" d="M12.3919 8.00617C12.0305 8.0329 11.5724 8.10406 11.3891 8.16194C11.0743 8.26134 10.6821 8.61585 10.7546 8.73536C10.768 8.75733 10.841 8.78705 10.9169 8.80138C11.2575 8.86577 11.5448 9.06249 11.6737 9.31948C11.8938 9.75879 11.9928 11.1328 11.8744 12.1055C11.7961 12.7484 11.763 12.8975 11.647 13.1306C11.3357 13.756 10.6207 13.2497 9.83275 11.846C9.55234 11.3465 8.7632 9.74333 8.58711 9.31551C8.37429 8.79847 8.30692 8.70326 8.06494 8.57792L7.8607 8.47213L6.31934 8.4834C4.92744 8.49357 4.76632 8.50117 4.65761 8.56163C4.48527 8.65751 4.41166 8.78841 4.43446 8.95863C4.45886 9.14098 5.04347 10.4638 5.47427 11.3115C6.31299 12.9618 7.02335 14.1602 7.78274 15.2059C8.89962 16.7438 9.39378 17.2427 10.5349 17.9849C11.0677 18.3315 11.4523 18.5254 11.9277 18.6871C12.5809 18.9093 12.8652 18.9521 13.8404 18.9748C14.811 18.9974 15.0898 18.9689 15.2955 18.8261C15.4648 18.7085 15.5173 18.5462 15.5489 18.0416C15.5801 17.5436 15.6756 17.1166 15.8069 16.8885C15.9228 16.6872 16.1746 16.4548 16.2826 16.4494C16.6596 16.4305 16.8706 16.5899 17.6581 17.4886C18.3965 18.3311 18.6694 18.5791 19.0773 18.7779C19.2612 18.8675 19.4868 18.9584 19.5788 18.9799C19.8016 19.0319 22.8097 18.9734 23.0039 18.9133C23.1962 18.8537 23.4033 18.6469 23.4081 18.5097C23.421 18.1344 23.3673 17.9652 23.1094 17.5687C22.7703 17.0475 22.4791 16.7147 21.4875 15.7154C20.4346 14.6543 20.361 14.5555 20.3595 14.2005C20.3583 13.9025 20.4951 13.6735 21.4195 12.4269C22.7235 10.6683 23.2457 9.81883 23.3909 9.21997C23.476 8.86875 23.4276 8.69929 23.2078 8.57974L23.0515 8.49467L21.1758 8.50737C19.8499 8.51633 19.2734 8.53297 19.2087 8.56409C19.0828 8.62462 18.9494 8.84535 18.7822 9.26976C18.3366 10.4002 17.4194 12.0286 16.815 12.7623C16.5744 13.0543 16.2006 13.3532 16.0759 13.3532C15.9018 13.3532 15.7582 13.2387 15.6494 13.0132L15.5489 12.805L15.5591 10.8419C15.5701 8.7309 15.5653 8.66855 15.3734 8.38982C15.1844 8.11529 14.7235 8.02114 13.4876 8.00462C12.9871 7.99789 12.4941 7.99861 12.3919 8.00617Z" fill="white"/>
</svg>
